<svg width="43" height="25" viewBox="0 0 43 25" fill="none" xmlns="http://www.w3.org/2000/svg">
    <rect x="0.640625" y="5.77246" width="42" height="7.1309" rx="3.52717" fill="#999999" />
    <rect x="2.56641" y="6.35156" width="38.4783" height="5.77174" rx="2.88587" fill="#A7A7A7" />
    <rect x="5.44141" y="5.77246" width="32.4" height="7.1309" fill="#4C4C4C" />
    <rect width="18.738" height="4.99679" rx="2.49839"
        transform="matrix(0.67925 -0.733907 0.67925 0.733907 4.19922 20.8828)" fill="#4C4C4C" />
    <rect width="18.3368" height="2.69912" rx="1.34956"
        transform="matrix(0.67925 -0.733907 0.67925 0.733907 6.87109 21.376)" fill="#3F3F3F" />
    <rect width="18.738" height="4.99679" rx="2.49839"
        transform="matrix(-0.67925 -0.733907 -0.67925 0.733907 37.8008 20.8828)" fill="#3F3F3F" />
    <rect width="18.3368" height="2.81384" rx="1.40692"
        transform="matrix(0.67925 0.733907 -0.67925 0.733907 22.832 7.91797)" fill="#4C4C4C" />
    <path
        d="M18.0301 4.98678C18.5861 4.09364 19.5028 3.52181 20.4967 3.4481L22.1807 3.32321L23.8415 3.37511C24.8446 3.40645 25.7555 3.95009 26.2871 4.83473L27.1577 6.28343L27.8836 7.82238C28.3269 8.76215 28.3072 9.88625 27.8308 10.8405L27.042 12.4205L26.0999 13.9337C25.5438 14.8269 24.6272 15.3987 23.6332 15.4724L21.9492 15.5973L20.2885 15.5454C19.2853 15.514 18.3745 14.9704 17.8428 14.0858L16.9722 12.6371L16.2463 11.0981C15.8031 10.1583 15.8227 9.03424 16.2992 8.07996L17.088 6.50003L18.0301 4.98678Z"
        fill="#3F3F3F" />
    <path
        d="M18.4511 5.56901C18.9363 4.80212 19.7259 4.30956 20.5832 4.23903L22.1305 4.11174L23.6145 4.14455C24.5026 4.16418 25.3116 4.64147 25.7828 5.42378L26.541 6.68279L27.1711 8.02179C27.5625 8.85381 27.5406 9.84942 27.1123 10.6902L26.3966 12.0952L25.5209 13.4794C25.0357 14.2462 24.2461 14.7388 23.3888 14.8093L21.8415 14.9366L20.3575 14.9038C19.4694 14.8842 18.6604 14.4069 18.1892 13.6246L17.431 12.3656L16.8009 11.0266C16.4095 10.1946 16.4314 9.19895 16.8597 8.35814L17.5754 6.95314L18.4511 5.56901Z"
        fill="#4C4C4C" />
</svg>